<svg width="56" height="49" viewBox="0 0 56 49" fill="none" xmlns="http://www.w3.org/2000/svg">
<path d="M3 9.11111C3 7.49034 3.58532 5.93596 4.62718 4.7899C5.66905 3.64385 7.08213 3 8.55556 3H47.4444C48.9179 3 50.3309 3.64385 51.3728 4.7899C52.4147 5.93596 53 7.49034 53 9.11111V39.6667C53 41.2874 52.4147 42.8418 51.3728 43.9879C50.3309 45.1339 48.9179 45.7778 47.4444 45.7778H8.55556C7.08213 45.7778 5.66905 45.1339 4.62718 43.9879C3.58532 42.8418 3 41.2874 3 39.6667V9.11111Z" stroke="black" stroke-width="5" stroke-linecap="round" stroke-linejoin="round"/>
<path d="M3 9L28 27L53 9" stroke="black" stroke-width="5" stroke-linecap="round" stroke-linejoin="round"/>
</svg>
