<?xml version="1.0" encoding="UTF-8" standalone="no"?>
<svg
   width="128.36"
   height="128"
   viewBox="0 0 718 716"
   version="1.1"
   id="svg1"
   xmlns="http://www.w3.org/2000/svg"
   xmlns:svg="http://www.w3.org/2000/svg">
  <defs
     id="defs1" />
  <path
     fill="#000000"
     d="m 276.1309,287.64327 -0.0954,15.47945 65.36159,-59.85735 0.48965,-79.46114 c 0.0763,-12.38356 2.07372,-33.00805 7.84967,-59.79486 5.77595,-26.786771 12.87506,-40.662971 20.35588,-40.603991 20.57223,0.16224 30.18413,33.77845 29.30005,101.368321 l -0.48333,78.42916 64.61758,60.88229 0.55976,-14.95977 c -0.38807,-12.90322 5.73144,-19.56305 15.08246,-19.48932 11.22121,0.0885 16.76188,11.48431 16.60926,36.25142 l 0.31174,25.28677 45.5847,38.54394 -0.35627,-18.06304 c -0.39441,-11.87126 5.25435,-18.01878 15.0761,-18.45737 11.22123,0.0885 17.24534,8.90811 17.14359,25.41951 l -0.22894,37.15067 c 51.16989,42.71601 77.18738,69.7535 77.11743,81.1051 -0.49617,4.64014 -1.9338,10.30488 -5.71236,16.46716 -3.7722,5.13033 -8.00241,8.709 -12.21355,9.1918 -4.20478,-0.54915 -15.38784,-6.82943 -32.60775,-19.86536 -18.15499,-13.04333 -51.23345,-32.3964 -100.6476,-56.52234 -49.40776,-25.1579 -79.26108,-36.74545 -89.07645,-37.33886 -3.74042,-0.0294 -6.56481,3.04427 -8.00244,8.70901 -1.90196,5.14507 -3.91846,28.86547 -4.6372,69.6243 -0.25438,41.2785 -2.81153,76.86279 -7.67781,107.78481 2.31549,3.63029 13.01511,12.48677 30.69302,27.07435 17.67791,14.58759 28.83554,24.99569 32.07976,29.66533 2.77352,5.18193 4.11577,14.99664 4.0331,28.41214 -0.0445,7.22375 -0.54069,11.86389 -2.42999,14.94505 -12.15631,-0.0959 -41.07451,-11.67604 -85.82586,-33.70119 -50.62904,21.27304 -79.68079,31.36408 -87.16161,31.30509 -1.85749,-2.07867 -2.76079,-7.24586 -2.71629,-14.4696 0.0827,-13.41551 1.54574,-23.2081 5.31796,-28.33841 2.83709,-5.1377 14.11554,-14.33688 32.43588,-28.12459 17.85598,-14.30738 28.19933,-23.51394 31.49443,-27.09999 -5.41982,-31.00313 -8.84863,-81.5988 -8.40348,-153.83619 -0.80155,-21.67858 -4.47836,-32.0277 -11.02408,-32.07931 -9.81539,-0.59342 -39.81496,11.55418 -89.05725,35.4182 -49.71302,24.3763 -83.4848,41.6542 -101.33439,54.92962 -18.31399,12.75576 -29.109,19.37871 -33.31377,18.82955 -4.21114,0.4828 -8.396843,-3.16225 -12.099103,-9.38352 -4.17298,-5.70897 -5.54066,-11.39584 -5.50887,-16.55564 0.0636,-10.31963 25.947433,-37.46387 78.109493,-79.88108 l -0.24181,-36.63837 c 0.56614,-15.99176 6.69835,-24.71549 17.91957,-24.62699 9.82175,-0.43857 14.92347,6.30973 14.85353,17.66133 l -0.57885,18.05565 46.05528,-37.82131 0.617,-24.24745 c 0.15263,-24.76708 5.83319,-36.07444 17.05442,-35.98596 10.28612,0.0811 14.92346,6.30976 15.31152,19.21298"
     id="path1"
     style="stroke-width:0.694636" />
</svg>
